{"title":"Mr.Robot.S01E05.1080p.WEB-DL.DD5.1.H.264-RARBG","uid":12152943,"size":1756562542,"categoryP":"video","categoryS":"hd___tv_shows","magnet":"?xt=urn:btih:81ba5fd5265db6b2c0905d98dab855456780f7ca&amp;dn=Mr.Robot.S01E05.1080p.WEB-DL.DD5.1.H.264-RARBG&amp;tr=udp%3A%2F%2Ftracker.openbittorrent.com%3A80&amp;tr=udp%3A%2F%2Fopen.demonii.com%3A1337&amp;tr=udp%3A%2F%2Ftracker.coppersurfer.tk%3A6969&amp;tr=udp%3A%2F%2Fexodus.desync.com%3A6969","seeders":1,"leechers":0,"uploader":"frostyon420","files":3,"time":1437683658,"description":"[url=http://i.imgur.com/jmMYtxe.jpg][img]http://i.imgur.com/jmMYtxel.jpg[/img][/url]\n[url=http://i.imgur.com/PTpvHUp.jpg][img]http://i.imgur.com/PTpvHUpl.jpg[/img][/url]\n[url=http://i.imgur.com/zbvinJq.jpg][img]http://i.imgur.com/zbvinJql.jpg[/img][/url]\n[url=http://i.imgur.com/hOgB4Mf.jpg][img]http://i.imgur.com/hOgB4Mfl.jpg[/img][/url]\n[url=http://i.imgur.com/m4R8puB.jpg][img]http://i.imgur.com/m4R8puBl.jpg[/img][/url]\n[url=http://i.imgur.com/bBYKXHj.jpg][img]http://i.imgur.com/bBYKXHjl.jpg[/img][/url]\n\n[mediainfo]\nVideo\nID : 1\nFormat : AVC\nFormat/Info : Advanced Video Codec\nFormat profile : &lt;a class=&quot;__cf_email__&quot; href=&quot;/cdn-cgi/l/email-protection&quot; data-cfemail=&quot;e0a8898788a0acd4ced0&quot;&gt;[email&amp;#160;protected]&lt;/a&gt;&lt;script data-cfhash='f9e31' type=&quot;text/javascript&quot;&gt;\n/* &lt;![CDATA[ */!function(){try{var t=&quot;currentScript&quot;in document?document.currentScript:function(){for(var t=document.getElementsByTagName(&quot;script&quot;),e=t.length;e--;)if(t[e].getAttribute(&quot;data-cfhash&quot;))return t[e]}();if(t&amp;&amp;t.previousSibling){var e,r,n,i,c=t.previousSibling,a=c.getAttribute(&quot;data-cfemail&quot;);if(a){for(e=&quot;&quot;,r=parseInt(a.substr(0,2),16),n=2;a.length-n;n+=2)i=parseInt(a.substr(n,2),16)^r,e+=String.fromCharCode(i);e=document.createTextNode(e),c.parentNode.replaceChild(e,c)}t.parentNode.removeChild(t);}}catch(u){}}()/* ]]&gt; */&lt;/script&gt;\nFormat settings, CABAC : Yes\nFormat settings, ReFrames : 4 frames\nCodec ID : V_MPEG4/ISO/AVC\nDuration : 44mn 51s\nBit rate : 4 734 Kbps\nWidth : 1 920 pixels\nHeight : 1 080 pixels\nDisplay aspect ratio : 16:9\nFrame rate mode : Constant\nFrame rate : 23.976 fps\nColor space : YUV\nChroma subsampling : 4:2:0\nBit depth : 8 bits\nScan type : Progressive\nBits/(Pixel*Frame) : 0.095\nStream size : 1.48 GiB (91%)\nTitle : Mr.Robot.S01E05.3xpl0its.wmv.1080p.WEB-DL.DD5.1.H.264-RARBG\nLanguage : English\nDefault : Yes\nForced : No\nColor primaries : BT.709\nTransfer characteristics : BT.709\nMatrix coefficients : BT.709\nColor range : Limited\n\nAudio\nID : 2\nFormat : AC-3\nFormat/Info : Audio Coding 3\nMode extension : CM (complete main)\nFormat settings, Endianness : Big\nCodec ID : A_AC3\nDuration : 44mn 51s\nBit rate mode : Constant\nBit rate : 384 Kbps\nChannel(s) : 6 channels\nChannel positions : Front: L C R, Side: L R, LFE\nSampling rate : 48.0 KHz\nBit depth : 16 bits\nCompression mode : Lossy\nStream size : 123 MiB (7%)\nTitle : Mr.Robot.S01E05.3xpl0its.wmv.1080p.WEB-DL.DD5.1.H.264-RARBG\nLanguage : English\nDefault : Yes\nForced : No\n\nText\nID : 3\nFormat : UTF-8\nCodec ID : S_TEXT/UTF8\nCodec ID/Info : UTF-8 Plain Text\nTitle : English\nLanguage : English\nDefault : No\nForced : No\n\n\nPhr0stY-Duz-It\n[/mediainfo]","torrent":{"xt":"urn:btih:81ba5fd5265db6b2c0905d98dab855456780f7ca","amp;dn":"Mr.Robot.S01E05.1080p.WEB-DL.DD5.1.H.264-RARBG","amp;tr":["udp%3A%2F%2Ftracker.openbittorrent.com%3A80","udp%3A%2F%2Fopen.demonii.com%3A1337","udp%3A%2F%2Ftracker.coppersurfer.tk%3A6969","udp%3A%2F%2Fexodus.desync.com%3A6969"],"infoHash":"81ba5fd5265db6b2c0905d98dab855456780f7ca","infoHashBuffer":{"type":"Buffer","data":[129,186,95,213,38,93,182,178,192,144,93,152,218,184,85,69,103,128,247,202]},"announce":[],"urlList":[]}}